# xmcd CD database file
#
# Track frame offsets:
#	150
#	22642
#	43442
#	62655
#	81442
#	105475
#	125790
#	144705
#	160975
#	186772
#	210140
#	234307
#
# Disc length: 3426 seconds
#
# Revision: 0
# Processed by: cddbd v1.5PL3 Copyright (c) Steve Scherf et al.
# Submitted via: CDex 1.51
#
DISCID=9f0d600c
DTITLE=Jevetta Steele - here it is
DYEAR=1993
DGENRE=Dance
TTITLE0=All in time
TTITLE1=Hold me
TTITLE2=Where do we go from here
TTITLE3=Good Foot
TTITLE4=Calling you
TTITLE5=Love is a losing game
TTITLE6=Here it is
TTITLE7=Baby are you
TTITLE8=If you want my lovin'
TTITLE9=Open book
TTITLE10=Say a little prayer for you
TTITLE11=Love will follow
EXTD=YEAR: 1993
EXTT0=
EXTT1=
EXTT2=
EXTT3=
EXTT4=
EXTT5=
EXTT6=
EXTT7=
EXTT8=
EXTT9=
EXTT10=
EXTT11=
PLAYORDER=
